<?xml version="1.0" standalone="no"?>
<!DOCTYPE svg PUBLIC "-//W3C//DTD SVG 20010904//EN"
 "http://www.w3.org/TR/2001/REC-SVG-20010904/DTD/svg10.dtd">
<svg version="1.0" xmlns="http://www.w3.org/2000/svg"
 width="178.000000pt" height="178.000000pt" viewBox="0 0 178.000000 178.000000"
 preserveAspectRatio="xMidYMid meet">
<metadata>
Created by potrace 1.11, written by Peter Selinger 2001-2013
</metadata>
<g transform="translate(0.000000,178.000000) scale(0.100000,-0.100000)"
fill="#000000" stroke="none">
<path d="M372 1642 c-7 -2 -12 -13 -12 -24 0 -14 -6 -19 -22 -18 -59 5 -86 0
-90 -18 -4 -15 -13 -17 -42 -14 -33 4 -36 2 -36 -22 0 -21 -5 -26 -25 -26 -14
0 -25 -3 -25 -7 1 -19 17 -28 50 -28 28 0 35 -4 35 -20 0 -14 7 -20 25 -22 14
0 33 -1 42 -2 11 -1 15 -6 12 -16 -6 -14 5 -19 34 -16 8 1 12 -14 12 -48 0
-44 -3 -50 -22 -53 -13 -2 -22 -9 -21 -16 2 -6 0 -11 -5 -11 -26 4 -32 -4 -32
-47 0 -41 -2 -45 -20 -39 -23 7 -22 11 -24 -80 -1 -71 -10 -100 -27 -90 -5 4
-9 -84 -9 -223 0 -215 1 -230 18 -234 16 -4 18 -14 16 -54 -2 -47 6 -77 19
-75 4 1 12 1 17 1 6 0 10 -69 10 -186 0 -171 1 -185 17 -182 10 2 18 12 18 23
0 11 6 21 13 21 6 1 17 2 22 3 6 0 10 10 10 21 0 11 7 20 15 20 8 0 16 5 16
10 1 6 2 16 3 22 1 8 18 13 44 14 38 1 42 -2 42 -23 0 -16 6 -23 19 -23 13 0
21 -8 23 -23 2 -14 9 -21 19 -19 11 1 19 -7 23 -23 4 -16 13 -25 27 -25 19 0
20 5 17 103 -2 72 -7 102 -15 103 -7 1 -17 2 -21 3 -4 0 -8 19 -7 40 1 34 -3
41 -22 46 -19 4 -23 12 -23 46 0 32 -3 39 -17 37 -16 -3 -18 9 -19 125 -1 116
0 127 17 127 16 0 19 10 21 83 3 69 6 82 19 79 11 -1 19 7 23 23 4 16 13 25
26 25 13 0 20 7 20 18 0 16 7 19 40 17 36 -2 40 1 40 22 0 21 4 23 45 23 43 0
45 -1 41 -26 -9 -49 -1 -54 91 -54 72 0 84 2 79 15 -5 13 5 20 27 16 4 0 7 10
7 24 0 18 5 25 20 25 11 0 20 7 20 15 0 18 -14 17 198 19 158 1 172 0 172 -16
0 -15 9 -18 45 -18 38 0 45 -3 45 -20 0 -23 -6 -22 88 -24 69 -2 72 -2 72 21
0 17 6 23 23 23 20 0 23 5 21 33 -2 47 -2 47 -24 47 -13 0 -20 7 -20 20 0 14
-7 20 -24 20 -19 0 -23 4 -19 20 4 16 0 20 -21 20 -21 0 -26 5 -26 26 0 14 -4
23 -10 19 -10 -6 -11 -4 -15 55 -1 19 -3 41 -4 48 0 6 -10 12 -20 12 -13 0
-21 8 -23 23 -2 12 -7 20 -12 19 -14 -6 -24 19 -20 50 2 23 -2 31 -19 37 -12
5 -25 7 -29 4 -5 -2 -8 8 -8 22 0 26 -2 27 -40 23 -33 -3 -40 0 -40 14 0 17
-15 22 -53 19 -10 -2 -21 8 -27 24 -7 19 -17 26 -33 25 -38 -3 -47 -1 -47 15
0 12 -14 15 -64 15 -59 0 -65 2 -68 23 l-3 22 -301 1 c-165 0 -306 -2 -312 -4z"/>
</g>
</svg>
